# xmcd
#
# Track frame offsets: 
#        150
#        19147
#        34702
#        52625
#        62754
#        79179
#        96109
#        110044
#        129930
#        142072
#        167979
#
# Disc length: 2612 seconds
#
# Revision: 1
# Processed by: cddbd v1.5.2PL0 Copyright (c) Steve Scherf et al.
# Submitted via: ExactAudioCopy v1.3
#
DISCID=8f0a320b
DTITLE=Jussi Syren And The Groundbreakers - Heartagrass: An Acoustic T
DTITLE=ribute To HIM
DYEAR=2005
DGENRE=Bluegrass
TTITLE0=The Sacrament
TTITLE1=Wings Of A Butterfly
TTITLE2=In Joy And Sorrow
TTITLE3=Solitary Man
TTITLE4=Right Here In My Arms
TTITLE5=The Funeral Of Hearts
TTITLE6=Join Me
TTITLE7=Buried Alive By Love
TTITLE8=Dark Light
TTITLE9=Heartache Every Moment
TTITLE10=video
EXTD=
EXTT0=
EXTT1=
EXTT2=
EXTT3=
EXTT4=
EXTT5=
EXTT6=
EXTT7=
EXTT8=
EXTT9=
EXTT10=
PLAYORDER=
